<svg width="40" height="30" viewBox="0 0 40 30" fill="none" xmlns="http://www.w3.org/2000/svg">
<path d="M39.9399 4.51159C39.8801 4.387 39.7789 4.28049 39.649 4.20555C39.5191 4.13061 39.3664 4.09059 39.2101 4.09057H32.7328C32.0115 2.87453 30.9198 1.85117 29.5752 1.13046C28.2306 0.409759 26.6838 0.0189739 25.1011 0.000112909C22.7825 -0.0108214 20.5535 0.772818 18.9036 2.17899C17.2537 3.58517 16.3177 5.49896 16.3011 7.50021V9.40251C7.74695 7.80959 1.96776 1.68269 1.90871 1.61911C1.81401 1.51689 1.68724 1.44035 1.54351 1.39863C1.39978 1.35691 1.24518 1.35178 1.09817 1.38384C0.95115 1.4159 0.817932 1.48381 0.71442 1.57945C0.610908 1.67509 0.541476 1.79443 0.514415 1.92321C-1.17216 9.92888 1.60793 14.8939 4.23674 17.6492C5.74675 19.2429 7.62309 20.5491 9.74735 21.4855C7.84096 24.7225 1.20682 25.9101 1.13632 25.9225C0.996186 25.9468 0.866316 26.0034 0.760545 26.0864C0.654773 26.1694 0.577064 26.2756 0.535697 26.3936C0.494329 26.5117 0.490854 26.6373 0.525641 26.7569C0.560429 26.8766 0.632175 26.9859 0.733236 27.0731C0.87148 27.1924 4.2 30 10.7713 30C17.633 30 23.5036 27.8594 27.7489 23.8097C31.4473 20.2814 33.5982 15.4488 33.678 10.5113L39.7686 5.25444C39.8791 5.15909 39.9543 5.0376 39.9848 4.90535C40.0153 4.77309 39.9997 4.63601 39.9399 4.51142V4.51159ZM32.3319 9.74479C32.2585 9.80811 32.2003 9.88329 32.1606 9.96603C32.1209 10.0488 32.1004 10.1375 32.1004 10.227C32.1004 14.9291 30.0874 19.5464 26.5774 22.8947C22.64 26.651 17.174 28.6363 10.7713 28.6363C7.05178 28.6363 4.47926 27.6341 3.08339 26.8914C5.60693 26.2286 10.2685 24.5943 11.5208 21.3519C11.5855 21.1845 11.5724 21.002 11.4844 20.8427C11.3964 20.6835 11.2402 20.5599 11.0488 20.4979C11.0192 20.4882 8.05682 19.5075 5.45645 16.7823C2.21936 13.3897 0.996887 8.95063 1.81391 3.57187C4.07598 5.60865 9.54314 9.83257 16.9611 10.8996C17.0743 10.9159 17.1902 10.9107 17.3009 10.8844C17.4115 10.8581 17.5141 10.8114 17.6017 10.7473C17.6892 10.6833 17.7596 10.6036 17.8078 10.5138C17.8561 10.4239 17.8811 10.326 17.881 10.227V7.50004C17.8977 5.86345 18.6646 4.29915 20.0139 3.14921C21.3632 1.99927 23.1852 1.35727 25.0814 1.3636C26.4492 1.37994 27.7827 1.73582 28.9226 2.38872C30.0624 3.04161 30.9603 3.96392 31.5091 5.04546C31.5707 5.16694 31.6719 5.2703 31.8004 5.3429C31.9289 5.41549 32.0792 5.45418 32.2328 5.45422H37.3028L32.3319 9.74479Z" fill="white"/>
</svg>
