<svg width="33" height="40" viewBox="0 0 33 40" fill="none" xmlns="http://www.w3.org/2000/svg">
<path d="M20.4375 2.58325L20.8125 2.62361H26V6.49849H20.8125C20.5208 6.49849 20.2396 6.51194 19.9688 6.53885C19.6979 6.56576 19.4792 6.61285 19.3125 6.68012C19.1458 6.74739 18.9896 6.82139 18.8438 6.90212C18.6979 6.98285 18.5729 7.06357 18.4688 7.1443C18.3646 7.22503 18.2812 7.31248 18.2188 7.40666C18.1562 7.50084 18.1146 7.58157 18.0938 7.64884L18.0312 7.85066L18 7.99193V14.2079H28.125L26.6875 18.0827H18V37.4571H12V18.0827H4V14.2079H12V8.19374C12 7.35957 12.1667 6.61285 12.5 5.95358C12.8333 5.29432 13.2812 4.77632 13.8438 4.3996C14.4062 4.02287 14.9792 3.69997 15.5625 3.43088C16.1458 3.16179 16.7917 2.97343 17.5 2.86579C18.2083 2.75816 18.7708 2.68416 19.1875 2.64379C19.6042 2.60343 20.0208 2.58325 20.4375 2.58325ZM20.4375 0C17.8542 0 15.5417 0.403633 13.5 1.2109C9.83333 2.63707 8 4.96468 8 8.19374V11.6246H4C2.91667 11.6246 1.97917 11.8803 1.1875 12.3915C0.395833 12.9028 0 13.5082 0 14.2079V18.0827C0 18.7824 0.395833 19.3878 1.1875 19.8991C1.97917 20.4104 2.91667 20.666 4 20.666H8V37.4168C8 38.1433 8.38542 38.7555 9.15625 39.2533C9.92708 39.7511 10.875 40 12 40H18C19.0833 40 20.0208 39.7511 20.8125 39.2533C21.6042 38.7555 22 38.1433 22 37.4168V20.666H26.6875C27.6042 20.666 28.4167 20.4911 29.125 20.1413C29.8333 19.7915 30.3125 19.3475 30.5625 18.8093L31.9375 14.9344C32.3125 14.1002 32.1042 13.3401 31.3125 12.6539C30.5208 11.9677 29.4583 11.6246 28.125 11.6246H22V9.08174H26C27.0833 9.08174 28.0208 8.8261 28.8125 8.31483C29.6042 7.80357 30 7.19812 30 6.49849V2.62361C30 1.89707 29.6146 1.2849 28.8438 0.787084C28.0729 0.28927 27.1458 0.0403633 26.0625 0.0403633H20.9375C20.7708 0.0134544 20.6042 0 20.4375 0Z" fill="white"/>
</svg>
