<svg width="40" height="40" viewBox="0 0 40 40" fill="none" xmlns="http://www.w3.org/2000/svg">
<path d="M19.9996 12.2949C17.9557 12.2949 15.9955 13.1069 14.5502 14.5522C13.1049 15.9974 12.293 17.9577 12.293 20.0016C12.293 22.0455 13.1049 24.0057 14.5502 25.451C15.9955 26.8963 17.9557 27.7083 19.9996 27.7083C22.0436 27.7083 24.0038 26.8963 25.4491 25.451C26.8944 24.0057 27.7063 22.0455 27.7063 20.0016C27.7063 17.9577 26.8944 15.9974 25.4491 14.5522C24.0038 13.1069 22.0436 12.2949 19.9996 12.2949ZM19.9996 25.0066C18.6718 25.0066 17.3983 24.4791 16.4594 23.5402C15.5205 22.6012 14.993 21.3278 14.993 19.9999C14.993 18.6721 15.5205 17.3986 16.4594 16.4597C17.3983 15.5207 18.6718 14.9933 19.9996 14.9933C21.3275 14.9933 22.601 15.5207 23.5399 16.4597C24.4788 17.3986 25.0063 18.6721 25.0063 19.9999C25.0063 21.3278 24.4788 22.6012 23.5399 23.5402C22.601 24.4791 21.3275 25.0066 19.9996 25.0066Z" fill="white"/>
<path d="M28.0076 13.8082C28.9999 13.8082 29.8043 13.0038 29.8043 12.0115C29.8043 11.0192 28.9999 10.2148 28.0076 10.2148C27.0153 10.2148 26.2109 11.0192 26.2109 12.0115C26.2109 13.0038 27.0153 13.8082 28.0076 13.8082Z" fill="white"/>
<path d="M34.2222 10.185C33.8364 9.1886 33.2468 8.28377 32.4911 7.5284C31.7355 6.77303 30.8304 6.18375 29.8339 5.7983C28.6678 5.36056 27.4359 5.12387 26.1906 5.0983C24.5856 5.0283 24.0772 5.0083 20.0072 5.0083C15.9372 5.0083 15.4156 5.0083 13.8239 5.0983C12.5796 5.12256 11.3485 5.3593 10.1839 5.7983C9.18713 6.1833 8.28185 6.77242 7.52613 7.52785C6.77041 8.28328 6.18095 9.18834 5.79557 10.185C5.35775 11.351 5.1216 12.583 5.09724 13.8283C5.02557 15.4316 5.00391 15.94 5.00391 20.0116C5.00391 24.0816 5.00391 24.6 5.09724 26.195C5.12224 27.4416 5.35724 28.6716 5.79557 29.84C6.18204 30.8362 6.77207 31.7409 7.52797 32.4963C8.28387 33.2516 9.18901 33.8409 10.1856 34.2266C11.348 34.682 12.5795 34.9356 13.8272 34.9766C15.4322 35.0466 15.9406 35.0683 20.0106 35.0683C24.0806 35.0683 24.6022 35.0683 26.1939 34.9766C27.4391 34.9513 28.671 34.7152 29.8372 34.2783C30.8335 33.892 31.7383 33.3022 32.4939 32.5466C33.2494 31.791 33.8392 30.8862 34.2256 29.89C34.6639 28.7233 34.8989 27.4933 34.9239 26.2466C34.9956 24.6433 35.0172 24.135 35.0172 20.0633C35.0172 15.9916 35.0172 15.475 34.9239 13.88C34.9045 12.6171 34.6671 11.367 34.2222 10.185ZM32.1922 26.0716C32.1815 27.0321 32.0062 27.9837 31.6739 28.885C31.4236 29.5331 31.0404 30.1216 30.549 30.6128C30.0576 31.1039 29.4688 31.4867 28.8206 31.7366C27.9293 32.0674 26.9878 32.2427 26.0372 32.255C24.4539 32.3283 24.0072 32.3466 19.9472 32.3466C15.8839 32.3466 15.4689 32.3466 13.8556 32.255C12.9055 32.2433 11.9644 32.068 11.0739 31.7366C10.4234 31.4883 9.83224 31.1061 9.33872 30.6149C8.8452 30.1237 8.4603 29.5343 8.20891 28.885C7.88132 27.9934 7.70609 27.053 7.69057 26.1033C7.61891 24.52 7.60224 24.0733 7.60224 20.0133C7.60224 15.9516 7.60224 15.5366 7.69057 13.9216C7.70135 12.9617 7.87666 12.0107 8.20891 11.11C8.71724 9.79497 9.75891 8.75997 11.0739 8.25663C11.9649 7.92687 12.9056 7.75157 13.8556 7.7383C15.4406 7.66663 15.8856 7.64663 19.9472 7.64663C24.0089 7.64663 24.4256 7.64663 26.0372 7.7383C26.9879 7.74974 27.9295 7.92509 28.8206 8.25663C29.4688 8.50709 30.0575 8.8903 30.5489 9.38168C31.0402 9.87306 31.4234 10.4618 31.6739 11.11C32.0015 12.0016 32.1767 12.9419 32.1922 13.8916C32.2639 15.4766 32.2822 15.9216 32.2822 19.9833C32.2822 24.0433 32.2822 24.48 32.2106 26.0733H32.1922V26.0716Z" fill="white"/>
</svg>
