<svg width="38" height="38" viewBox="0 0 38 38" fill="none" xmlns="http://www.w3.org/2000/svg">
<path d="M36.4356 6.51904L36.1256 6.20966C38.1674 4.26966 38.3493 3.74654 36.3012 1.69966C34.2531 -0.350336 33.7293 -0.166586 31.7899 1.87466L31.4812 1.56529C31.7518 1.23404 31.8649 0.904039 31.5656 0.604664C31.1968 0.236539 30.7843 0.485914 30.3762 0.894039C29.9687 1.30154 29.7206 1.71341 30.0881 2.08029C30.3881 2.37966 30.7168 2.26841 31.0487 1.99779L31.3712 2.32029C30.9006 2.82216 30.3537 3.40904 29.6974 4.08341L29.3299 3.71591C29.6012 3.38404 29.7118 3.05529 29.4137 2.75529C29.0456 2.38904 28.6331 2.63591 28.2268 3.04216C27.8181 3.45091 27.5699 3.86279 27.9387 4.23091C28.2381 4.53029 28.5674 4.41716 28.8993 4.14591L29.2712 4.51779C29.1993 4.59029 29.1349 4.65716 29.0606 4.73154C28.4881 5.30404 27.9931 5.80216 27.5662 6.25216L27.1806 5.86591C27.4506 5.53404 27.5624 5.20529 27.2624 4.90654C26.8949 4.53904 26.4824 4.78591 26.0762 5.19341C25.6687 5.60216 25.4193 6.01404 25.7881 6.38091C26.0881 6.68091 26.4168 6.56966 26.7487 6.29841L27.1506 6.70154C25.9199 8.06529 25.4968 8.93466 25.9643 9.91591L17.9224 17.504C16.9312 16.5403 15.8074 15.7434 14.0656 15.8765C9.90119 16.1915 12.6312 20.934 7.29681 21.289C5.38931 21.4147 3.57806 21.8334 2.26806 23.1465C-1.06319 26.4765 0.00181341 31.0478 3.47681 34.524C6.95119 37.999 11.5231 39.0622 14.8537 35.7328C16.5906 33.9972 16.5324 30.8478 17.1131 28.9659C17.8624 26.534 21.7774 27.3572 21.5981 24.6522C21.5824 24.3972 21.5199 24.2359 21.4224 24.1397C20.9356 23.6528 19.5706 24.8134 18.7499 23.9922C18.4924 23.7359 18.2899 23.2828 18.1837 22.5297L28.0843 12.0378C29.0656 12.5059 29.9362 12.0815 31.3006 10.8509L31.7024 11.2528C31.4312 11.5853 31.3206 11.9147 31.6181 12.2147C31.9856 12.5822 32.3993 12.334 32.8068 11.9253C33.2143 11.519 33.4624 11.1059 33.0937 10.7378C32.7943 10.439 32.4656 10.5515 32.1337 10.8222L31.7481 10.4372C32.1987 10.0103 32.6962 9.51529 33.2687 8.94216C33.3431 8.86779 33.4106 8.80404 33.4837 8.73154L33.8531 9.10279C33.5824 9.43529 33.4706 9.76404 33.7712 10.064C34.1387 10.4315 34.5506 10.1834 34.9581 9.77591C35.3631 9.36841 35.6124 8.95529 35.2449 8.58841C34.9462 8.28904 34.6174 8.40091 34.2856 8.67091L33.9187 8.30404C34.5924 7.64716 35.1793 7.10029 35.6806 6.63091L36.0037 6.95279C35.7318 7.28466 35.6212 7.61404 35.9212 7.91341C36.2887 8.27966 36.7006 8.03279 37.1074 7.62466C37.5162 7.21716 37.7637 6.80404 37.3962 6.43716C37.0962 6.13654 36.7674 6.24904 36.4356 6.51904ZM19.1418 25.6472C19.0856 25.6715 19.0281 25.6947 18.9662 25.7203C17.8568 26.1765 16.3343 26.8009 15.7924 28.5584C15.5937 29.2003 15.4699 29.9122 15.3393 30.6678C15.0818 32.1565 14.7887 33.8434 13.8774 34.7553C12.6031 36.0297 11.1031 36.5522 9.41556 36.3115C7.76369 36.0772 6.00056 35.0959 4.45244 33.5465C2.90369 31.9984 1.92244 30.2365 1.68869 28.5853C1.44744 26.8984 1.97181 25.3978 3.24431 24.1234C4.11806 23.2497 5.39619 22.8003 7.38869 22.6678C11.0987 22.4222 11.9431 20.2615 12.5018 18.8322C12.9381 17.714 13.0856 17.3365 14.1712 17.254C15.3006 17.1684 16.0574 17.6278 16.9174 18.4528L14.2143 21.004L16.9968 23.7878L17.0468 23.7347C17.2168 24.2434 17.4549 24.6515 17.7731 24.9697C18.1398 25.3435 18.6222 25.5822 19.1418 25.6472ZM28.8581 8.01654C28.7835 8.09094 28.6951 8.14994 28.5978 8.19015C28.5004 8.23037 28.3961 8.25103 28.2908 8.25094C28.1855 8.25086 28.0813 8.23003 27.984 8.18965C27.8868 8.14927 27.7984 8.09013 27.724 8.0156C27.6496 7.94108 27.5906 7.85263 27.5504 7.7553C27.5102 7.65798 27.4895 7.55368 27.4896 7.44838C27.4897 7.34307 27.5105 7.23881 27.5509 7.14155C27.5913 7.04429 27.6504 6.95594 27.7249 6.88154C27.8754 6.73128 28.0795 6.64696 28.2922 6.64714C28.5048 6.64731 28.7087 6.73197 28.859 6.88248C29.0093 7.03299 29.0936 7.23702 29.0934 7.4497C29.0932 7.66238 29.0086 7.86628 28.8581 8.01654ZM29.8849 4.72091C30.1987 4.40841 30.7062 4.40841 31.0206 4.72091C31.1702 4.87169 31.2541 5.07559 31.2539 5.28805C31.2537 5.5005 31.1693 5.70422 31.0193 5.85466C30.7049 6.16841 30.1974 6.16716 29.8862 5.85466C29.8114 5.78046 29.752 5.6922 29.7114 5.59496C29.6709 5.49771 29.6499 5.39341 29.6498 5.28805C29.6497 5.18268 29.6704 5.07834 29.7107 4.98101C29.7511 4.88368 29.8103 4.79528 29.8849 4.72091ZM31.1268 10.2834C30.974 10.4221 30.7737 10.4966 30.5674 10.4916C30.3611 10.4866 30.1646 10.4025 30.0186 10.2566C29.8727 10.1107 29.7884 9.91428 29.7833 9.70799C29.7782 9.50169 29.8526 9.30134 29.9912 9.14841C30.3062 8.83591 30.8131 8.83591 31.1268 9.14966C31.2015 9.22399 31.2607 9.31234 31.3011 9.40961C31.3415 9.50689 31.3623 9.6112 31.3623 9.71654C31.3623 9.82188 31.3415 9.92618 31.3011 10.0235C31.2607 10.1207 31.2015 10.2091 31.1268 10.2834ZM32.0449 2.56154C32.1194 2.48698 32.2078 2.42785 32.3051 2.38754C32.4024 2.34723 32.5067 2.32654 32.6121 2.32666C32.7174 2.32677 32.8217 2.34769 32.9189 2.38821C33.0162 2.42874 33.1044 2.48806 33.1787 2.56279C33.2907 2.67504 33.367 2.81801 33.3978 2.9736C33.4286 3.12919 33.4126 3.29042 33.3517 3.4369C33.2909 3.58338 33.188 3.70853 33.056 3.79651C32.924 3.88449 32.7689 3.93136 32.6103 3.93119C32.4517 3.93101 32.2967 3.8838 32.1649 3.79553C32.0331 3.70725 31.9305 3.58188 31.87 3.43527C31.8095 3.28866 31.7938 3.12739 31.8249 2.97186C31.8561 2.81634 31.9326 2.67354 32.0449 2.56154ZM33.2862 8.12279C33.1343 8.2657 32.9326 8.34384 32.7241 8.34064C32.5155 8.33745 32.3164 8.25318 32.1689 8.10569C32.0214 7.9582 31.9371 7.75908 31.934 7.55052C31.9308 7.34196 32.0089 7.14035 32.1518 6.98841C32.4643 6.67716 32.9724 6.67591 33.2868 6.98841C33.4369 7.13905 33.5211 7.34308 33.521 7.55573C33.5209 7.76839 33.4365 7.97231 33.2862 8.12279ZM35.4456 5.96279C35.3712 6.03719 35.2829 6.09622 35.1857 6.1365C35.0886 6.17678 34.9844 6.19753 34.8792 6.19756C34.774 6.19759 34.6699 6.1769 34.5727 6.13667C34.4755 6.09644 34.3872 6.03746 34.3128 5.9631C34.2383 5.88874 34.1793 5.80045 34.139 5.70328C34.0988 5.60611 34.078 5.50195 34.078 5.39676C34.078 5.29157 34.0986 5.1874 34.1389 5.09021C34.1791 4.99301 34.2381 4.90469 34.3124 4.83029C34.6249 4.51529 35.1331 4.51654 35.4462 4.83029C35.7593 5.14404 35.7606 5.64904 35.4456 5.96279Z" fill="white"/>
</svg>
