<svg width="30" height="34" viewBox="0 0 30 34" fill="none" xmlns="http://www.w3.org/2000/svg">
<path d="M1.66667 0.333496C1.22464 0.333496 0.800716 0.509091 0.488155 0.821651C0.175595 1.13421 0 1.55814 0 2.00016C0 2.44219 0.175595 2.86611 0.488155 3.17867C0.800716 3.49124 1.22464 3.66683 1.66667 3.66683C2.99275 3.66683 4.26452 4.19361 5.2022 5.1313C6.13988 6.06898 6.66667 7.34075 6.66667 8.66683V22.8335C6.66667 28.8335 11.5 33.6668 17.5 33.6668C23.5 33.6668 28.3333 28.8335 28.3333 22.8335V18.6668C28.7754 18.6668 29.1993 18.4912 29.5118 18.1787C29.8244 17.8661 30 17.4422 30 17.0002C30 16.5581 29.8244 16.1342 29.5118 15.8217C29.1993 15.5091 28.7754 15.3335 28.3333 15.3335H18.3333C17.8913 15.3335 17.4674 15.5091 17.1548 15.8217C16.8423 16.1342 16.6667 16.5581 16.6667 17.0002C16.6667 17.4422 16.8423 17.8661 17.1548 18.1787C17.4674 18.4912 17.8913 18.6668 18.3333 18.6668V22.0002C18.3333 22.4422 18.1577 22.8661 17.8452 23.1787C17.5326 23.4912 17.1087 23.6668 16.6667 23.6668C16.2246 23.6668 15.8007 23.4912 15.4882 23.1787C15.1756 22.8661 15 22.4422 15 22.0002V15.3335C15.442 15.3335 15.8659 15.1579 16.1785 14.8453C16.4911 14.5328 16.6667 14.1089 16.6667 13.6668C16.6667 13.2248 16.4911 12.8009 16.1785 12.4883C15.8659 12.1758 15.442 12.0002 15 12.0002V10.3335C15.442 10.3335 15.8659 10.1579 16.1785 9.84534C16.4911 9.53278 16.6667 9.10886 16.6667 8.66683C16.6667 8.2248 16.4911 7.80088 16.1785 7.48832C15.8659 7.17576 15.442 7.00016 15 7.00016V6.16683C15 4.61973 14.3854 3.136 13.2915 2.04204C12.1975 0.948078 10.7138 0.333496 9.16667 0.333496H1.66667Z" fill="white"/>
</svg>
