<svg width="40" height="40" viewBox="0 0 40 40" fill="none" xmlns="http://www.w3.org/2000/svg">
<path d="M38.1453 23.4887C39.5567 22.4213 39.924 21.53 39.9587 21.4367C39.986 21.3633 40 21.2856 40 21.2073V17.51C40 13.532 32.5587 10.926 24.254 10.2553L36.4947 3.45467C36.6775 3.35403 36.838 3.21747 36.9667 3.05317C37.0954 2.88888 37.1895 2.70027 37.2433 2.49867C37.2983 2.29714 37.3123 2.08662 37.2845 1.87958C37.2567 1.67254 37.1876 1.47319 37.0813 1.29333L36.778 0.776667C36.6392 0.540594 36.4413 0.344793 36.2037 0.20859C35.9662 0.0723866 35.6972 0.000491223 35.4233 4.87407e-07C35.204 4.87407e-07 34.9913 0.0593337 34.7913 0.148L34.7873 0.137334L34.71 0.182001C34.6873 0.194 34.662 0.198 34.64 0.211334L20 8.73933L5.35933 0.211334C5.12132 0.0727122 4.85077 -0.000217537 4.57533 4.87407e-07C4.01933 4.87407e-07 3.50067 0.298 3.22 0.777334L2.91733 1.29467C2.811 1.47425 2.74186 1.67338 2.71403 1.88021C2.6862 2.08705 2.70025 2.29737 2.75533 2.49867C2.80939 2.70037 2.90362 2.88907 3.03238 3.05346C3.16115 3.21785 3.32179 3.35454 3.50467 3.45533L15.7447 10.2553C7.44067 10.926 2.98539e-08 13.5327 2.98539e-08 17.51V21.2073C2.98539e-08 21.286 0.014 21.3633 0.042 21.4373C0.0766667 21.53 0.444 22.4227 1.85533 23.4887V26.582L1.41533 26.9967C0.476 27.8793 2.98539e-08 28.8347 2.98539e-08 29.8327V33.53C-2.37889e-05 33.6088 0.0142053 33.6869 0.042 33.7607C0.0766667 33.8533 0.454 34.7427 1.85533 35.8053V36.9187C1.85533 37.26 2.66733 37.536 3.67 37.536C4.072 37.536 4.43867 37.49 4.73933 37.4147C6.494 38.1507 8.88867 38.826 12.1387 39.2547V39.384C12.1387 39.724 12.95 40 13.9533 40C14.7393 40 15.4027 39.8287 15.6553 39.5913C16.9907 39.6753 18.4287 39.726 20.002 39.726C21.5753 39.726 23.0127 39.6753 24.3487 39.5913C24.598 39.8287 25.2613 40 26.048 40C27.05 40 27.8627 39.724 27.8627 39.384V39.2547C31.1127 38.8253 33.5073 38.1513 35.2627 37.4153C35.562 37.4893 35.9293 37.536 36.3313 37.536C37.3333 37.536 38.146 37.26 38.146 36.9187V35.8047C39.5473 34.742 39.9247 33.8527 39.9593 33.7607C39.986 33.686 40 33.6087 40 33.53V29.8327C40 28.87 39.5253 27.9287 38.5893 27.0333L38.1453 26.608V23.4887ZM35.124 1.056C35.2618 0.976539 35.4254 0.954724 35.5793 0.995301C35.7331 1.03588 35.8646 1.13557 35.9453 1.27267L36.2487 1.79067C36.2887 1.85796 36.3147 1.9326 36.3252 2.01017C36.3358 2.08773 36.3306 2.16662 36.31 2.24214C36.2894 2.31766 36.2538 2.38826 36.2054 2.44974C36.1569 2.51122 36.0966 2.56232 36.028 2.6L12.3533 15.7513C12.2033 16.0367 11.9247 16.3207 11.5527 16.5327C11.204 16.7313 10.84 16.8293 10.5287 16.8293C10.1967 16.8293 9.92467 16.718 9.79467 16.4967C9.54333 16.0667 9.92133 15.3867 10.6413 14.978C10.9887 14.78 11.3513 14.684 11.6627 14.684L11.728 14.6853L18.5607 10.7053H18.56L19.9993 9.86667L35.124 1.056ZM31.1873 15.738C31.1233 15.498 30.9993 15.2687 30.8467 15.0487C33.892 15.8253 36.2067 16.9153 37.34 18.184C36.242 20.5927 29.43 23.0207 20 23.0207C10.57 23.0207 3.758 20.5927 2.65933 18.184C3.79267 16.9153 6.10733 15.826 9.15133 15.0487C8.99867 15.2687 8.87467 15.498 8.81067 15.738C8.69267 16.1793 8.74533 16.6247 8.96 16.9913C9.26467 17.5093 9.83533 17.8047 10.5287 17.8047C11.0167 17.8047 11.5493 17.6547 12.028 17.382C12.4265 17.1601 12.7715 16.8536 13.0387 16.484L17.7507 13.8673C18.5 13.8326 19.2499 13.8141 20 13.812C20.764 13.812 21.5107 13.8347 22.248 13.8673L26.96 16.484C27.2073 16.8347 27.5573 17.1473 27.9707 17.382C28.4493 17.6547 28.982 17.8047 29.47 17.8047C30.1633 17.8047 30.734 17.51 31.0373 16.9927C31.2527 16.6253 31.3053 16.18 31.1873 15.738ZM30.2047 16.4967C30.0747 16.718 29.802 16.8293 29.47 16.8293C29.1587 16.8293 28.7947 16.7313 28.4467 16.5327C28.0733 16.3207 27.7947 16.0367 27.646 15.7513L21.0013 12.0613L22.4167 11.2747L28.2713 14.6847L28.336 14.6833C28.6473 14.6833 29.01 14.78 29.3573 14.9773C30.0767 15.3867 30.4553 16.0673 30.2047 16.4967ZM3.97067 2.6C3.90221 2.56225 3.84204 2.51114 3.7937 2.44971C3.74537 2.38827 3.70986 2.31776 3.68928 2.24234C3.6687 2.16693 3.66347 2.08815 3.6739 2.01068C3.68433 1.93321 3.71021 1.85862 3.75 1.79133L4.05333 1.27267C4.13414 1.1357 4.26571 1.03613 4.41948 0.995564C4.57325 0.955 4.73681 0.976717 4.87467 1.056L19.0347 9.30533L17.5727 10.156L3.97067 2.6ZM16.3713 10.8533L15.1287 11.5773C7.476 12.3013 1.85533 14.68 1.85533 17.5093C1.85533 20.912 9.97933 23.6707 20.0007 23.6707C30.0207 23.6707 38.146 20.9113 38.146 17.5093C38.146 14.68 32.5233 12.3007 24.8713 11.5773L23.6287 10.8533C32.5833 11.4487 39.356 14.2007 39.356 17.5093C39.356 19.0453 37.8967 20.46 35.4387 21.5973C35.036 21.6747 34.734 21.8033 34.6 21.9567C31.05 23.384 25.828 24.2873 20 24.2873C14.1713 24.2873 8.95 23.3847 5.40133 21.9573C5.26733 21.804 4.96533 21.6753 4.562 21.598C2.10467 20.4607 0.645333 19.046 0.645333 17.51C0.645333 14.2013 7.41667 11.4487 16.3713 10.8533ZM27.7253 24.3613C30.2407 23.9773 32.5733 23.4067 34.5167 22.6673V24.596C34.5167 24.6287 34.5307 24.6607 34.5447 24.692C32.9127 25.324 30.7427 25.9 27.8633 26.282V24.5967C27.8627 24.5133 27.8133 24.434 27.7253 24.3613ZM24.234 24.7653V26.6247C22.9333 26.704 21.5327 26.7513 20 26.7513C18.4673 26.7513 17.0673 26.7047 15.766 26.624V24.7653C17.1633 24.8787 18.5847 24.9373 20 24.9373C21.4153 24.9373 22.8367 24.8787 24.234 24.7653ZM12.2747 24.3613C12.1867 24.434 12.1373 24.5133 12.1373 24.596V26.2813C9.258 25.8993 7.088 25.3227 5.45533 24.692C5.47163 24.6622 5.4814 24.6292 5.484 24.5953V22.6667C7.42667 23.4067 9.75933 23.9773 12.2747 24.3613ZM0.645333 21.2073V19.4567C1.17467 20.228 2.01133 20.928 3.08733 21.5507C2.37267 21.6327 1.85467 21.8613 1.85467 22.132V22.6647C0.889333 21.8347 0.645333 21.2073 0.645333 21.2073ZM2.41933 34.0147C2.07467 34.126 1.85467 34.28 1.85467 34.454V34.988C0.889333 34.1573 0.645333 33.5293 0.645333 33.5293V31.78C1.05533 32.378 1.66933 32.9287 2.41933 33.4367V34.0147ZM2.41933 32.6547C1.29 31.7947 0.645333 30.8407 0.645333 29.8327C0.645333 29.002 1.074 28.2073 1.85467 27.4713V29.8327C1.85467 30.356 2.05667 30.864 2.41933 31.3487V32.6547ZM4.83867 36.7053C4.654 36.7833 4.25267 36.886 3.66933 36.886C3.086 36.886 2.68533 36.784 2.5 36.7053V35.6C2.88405 35.6839 3.27625 35.7245 3.66933 35.7213C4.06733 35.7213 4.47333 35.6847 4.83867 35.6V36.7053ZM3.06467 34.444V25.1747C3.25467 25.1973 3.45667 25.2127 3.66933 25.2127C3.882 25.2127 4.084 25.198 4.274 25.1747V34.444C4.274 34.6213 4.00333 34.7627 3.66933 34.7627C3.33533 34.7627 3.06467 34.6213 3.06467 34.444ZM4.83867 24.3813C4.654 24.46 4.25267 24.562 3.66933 24.562C3.086 24.562 2.68533 24.46 2.5 24.3813V23.276C2.88402 23.3601 3.27623 23.401 3.66933 23.398C4.06733 23.398 4.47333 23.3607 4.83867 23.276V24.3813ZM12.1373 36.9187V38.6033C9.26 38.2213 7.08733 37.646 5.45533 37.016C5.47162 36.9859 5.48139 36.9528 5.484 36.9187V34.99C7.42667 35.73 9.75933 36.3007 12.2747 36.6847C12.1867 36.7573 12.1373 36.8367 12.1373 36.9187ZM12.702 36.1073C9.874 35.7033 7.37533 35.074 5.40133 34.2807C5.31133 34.178 5.14067 34.0873 4.91933 34.016V33.2507C6.83 34.2213 9.52333 34.9967 12.702 35.472V36.1073ZM15.1213 39.1693C14.9353 39.248 14.5353 39.35 13.952 39.35C13.3687 39.35 12.9673 39.2487 12.7827 39.1693V38.0647C13.1667 38.1485 13.5589 38.1894 13.952 38.1867C14.3493 38.1867 14.756 38.1487 15.1213 38.0647V39.1693ZM13.3473 36.9093V27.6393C13.7489 27.6886 14.1551 27.6886 14.5567 27.6393V36.9093C14.5567 37.0853 14.286 37.2273 13.952 37.2273C13.618 37.2273 13.3473 37.0853 13.3473 36.9093ZM15.1213 26.846C14.9353 26.9247 14.5353 27.0267 13.952 27.0267C13.3687 27.0267 12.9673 26.9253 12.7827 26.846V25.742C13.1668 25.8252 13.559 25.8659 13.952 25.8633C14.345 25.8659 14.7372 25.8252 15.1213 25.742V26.846ZM24.234 38.9507C22.934 39.03 21.53 39.076 20 39.076C18.47 39.076 17.0667 39.03 15.766 38.9507V37.0893C17.1633 37.202 18.5847 37.2613 20 37.2613C21.4153 37.2613 22.8367 37.202 24.234 37.0893V38.9507ZM24.798 36.3927C23.262 36.5307 21.6593 36.6107 20 36.6107C18.3407 36.6107 16.7373 36.5307 15.202 36.3927V35.7673C16.7327 35.9107 18.3353 35.9947 20 35.9947C21.6647 35.9947 23.2673 35.9107 24.798 35.7673V36.3927ZM27.2173 39.1693C27.032 39.248 26.6313 39.35 26.048 39.35C25.4647 39.35 25.064 39.2487 24.8787 39.1693V38.0647C25.2627 38.1484 25.6549 38.1893 26.048 38.1867C26.446 38.1867 26.852 38.1487 27.2173 38.0647V39.1693ZM25.4433 36.9093V27.6393C25.8449 27.6887 26.2511 27.6887 26.6527 27.6393V36.9093C26.6527 37.0853 26.382 37.2273 26.048 37.2273C25.714 37.2273 25.4433 37.0853 25.4433 36.9093ZM27.2173 26.846C27.032 26.9247 26.6313 27.0267 26.048 27.0267C25.4647 27.0267 25.064 26.9253 24.8787 26.846V25.742C25.2628 25.8252 25.655 25.8659 26.048 25.8633C26.446 25.8633 26.852 25.8253 27.2173 25.742V26.846ZM27.8627 38.6033V36.9187C27.8627 36.8367 27.8133 36.7573 27.726 36.6847C30.2407 36.3007 32.5733 35.73 34.5167 34.99V36.9187C34.5167 36.952 34.5307 36.984 34.5453 37.016C32.9133 37.6467 30.74 38.2213 27.8627 38.6033ZM35.0807 34.0153C34.8593 34.0867 34.6887 34.1773 34.5987 34.28C32.624 35.0733 30.126 35.702 27.298 36.1067V35.4707C30.4767 34.9953 33.17 34.22 35.0807 33.2493V34.0153ZM37.5 36.7053C37.3153 36.7833 36.914 36.886 36.3307 36.886C35.7473 36.886 35.346 36.784 35.1613 36.7053V35.6C35.5267 35.6847 35.9327 35.7213 36.3307 35.7213C36.7287 35.7213 37.1347 35.6847 37.5 35.6V36.7053ZM35.726 34.444V25.1747C35.916 25.1973 36.118 25.2127 36.3307 25.2127C36.5433 25.2127 36.7453 25.198 36.9353 25.1747V34.444C36.9353 34.6213 36.6647 34.7627 36.3307 34.7627C35.9967 34.7627 35.726 34.6213 35.726 34.444ZM37.5 24.3813C37.3153 24.46 36.914 24.562 36.3307 24.562C35.7473 24.562 35.346 24.4607 35.1613 24.3813V23.276C35.5267 23.3607 35.9327 23.398 36.3307 23.398C36.7287 23.398 37.1347 23.3607 37.5 23.276V24.3813ZM39.3547 33.53C39.3547 33.53 39.1107 34.158 38.1453 34.9887V34.454C38.1453 34.28 37.9253 34.126 37.5807 34.0147V33.4367C38.3307 32.928 38.9447 32.378 39.3547 31.78V33.53ZM39.3547 29.8327C39.3547 30.8413 38.71 31.7947 37.5807 32.6547V31.3487C37.9433 30.8633 38.1453 30.356 38.1453 29.8327V27.5053C38.9033 28.2307 39.3547 29.0147 39.3547 29.8327ZM36.9127 21.55C37.9887 20.9273 38.8253 20.228 39.3547 19.456V21.2067C39.3547 21.2067 39.1107 21.8333 38.1453 22.664V22.1313C38.1453 21.8607 37.6273 21.632 36.9127 21.55Z" fill="white"/>
</svg>
