<svg width="40" height="20" viewBox="0 0 40 20" fill="none" xmlns="http://www.w3.org/2000/svg">
<path d="M38.1818 0C36.3636 7.69231 25.4545 7.69231 25.4545 7.69231H5.45455C3.63636 7.69231 1.81818 6.15385 1.81818 6.15385H0V12.3077H1.81818C1.81818 12.3077 3.63636 10.7692 5.45455 10.7692H6C5.63636 11.2308 5.45455 11.6923 5.45455 12.3077V15.3846C5.45455 17.0769 7.09091 18.4615 9.09091 18.4615H10.9091V20H14.5455V18.4615H16.3636V20H20V18.4615H21.8182V20H25.4545V18.4615H27.2727C29.2727 18.4615 30.9091 17.0769 30.9091 15.3846V12.3077C30.9091 12.1538 30.9091 11.8462 30.7273 11.6923C33.8182 12.6154 37.0909 14.4615 38.1818 18.4615H40V0H38.1818ZM9.09091 16.1538C8.54545 16.1538 8.18182 15.8462 8.18182 15.3846V12.3077C8.18182 11.8462 8.54545 11.5385 9.09091 11.5385H10.9091V16.1538H9.09091ZM14.5455 16.1538V11.5385H16.3636V16.1538H14.5455ZM20 16.1538V11.5385H21.8182V16.1538H20ZM28.1818 15.3846C28.1818 15.8462 27.8182 16.1538 27.2727 16.1538H25.4545V11.5385H27.2727C27.8182 11.5385 28.1818 11.8462 28.1818 12.3077V15.3846ZM14.5455 6.15385H10.9091V4.61538H14.5455V6.15385ZM20 6.15385H16.3636V4.61538H20V6.15385ZM25.4545 6.15385H21.8182V4.61538H25.4545V6.15385Z" fill="white"/>
</svg>
